<svg width="100%" viewBox="0 0 1201 462" fill="none" xmlns="http://www.w3.org/2000/svg">
<path d="M220.597 1.08713C223.934 39.2825 222.364 77.7473 215.925 115.545C213.867 127.137 210.987 139.287 202.934 147.828C189.856 161.944 168.049 162.267 148.828 161.621L36.8547 157.718C31.9761 157.542 26.5684 157.718 22.9241 160.829C19.2798 163.94 18.7802 169.369 18.4275 174.182L0.35303 423.436C-0.0878118 429.511 -0.381706 436.173 3.29197 441.044C6.96565 445.916 14.166 447.736 20.5436 448.675C69.859 456.1 120.086 452.96 169.901 451.14C410.541 442.336 651.241 454.075 891.823 458.154C988.514 459.857 1085.18 459.651 1181.9 461.089C1184.36 461.341 1186.85 460.893 1189.07 459.798C1190.36 458.7 1191.43 457.357 1192.21 455.846C1192.99 454.335 1193.46 452.686 1193.59 450.993C1209.08 371.519 1192.74 282.565 1188.74 202.386C1188.19 190.94 1187.13 178.526 1179.52 170.103C1175.95 166.221 1171.61 163.129 1166.78 161.026C1161.94 158.923 1156.72 157.856 1151.45 157.894C1088.38 158.921 1025.07 159.449 962.563 149.09C952.835 147.475 942.784 145.45 934.878 139.551C918.861 127.577 923.798 97.2901 923.122 79.6813L919.772 0.206543H866.5C866.41 40.3967 866.837 83.7557 862.698 123.733C861.904 131.187 860.758 139.317 855.35 144.511C842.948 156.251 817.144 153.169 801.773 154.049C777.733 155.399 753.683 156.544 729.622 157.483C682.717 159.264 635.792 160.242 588.847 160.418C493.743 160.77 398.717 157.757 303.77 151.379C296.657 150.909 289.281 150.352 283.197 146.859C264.975 136.617 267.092 109.91 265.563 92.1542C262.624 62.043 261.449 31.7852 261.419 1.55662C248.106 0.265303 234.087 2.23159 220.774 0.969622" fill="url(#paint0_linear)"/>
<defs>
<linearGradient id="paint0_linear" x1="600.118" y1="0.206543" x2="600.118" y2="461.157" gradientUnits="userSpaceOnUse">
<stop stop-color="#202223"/>
<stop offset="1" stop-color="#585C5F"/>
</linearGradient>
</defs>
</svg>
