<svg height='300px' width='300px'  fill="#fff" xmlns:dc="http://purl.org/dc/elements/1.1/" xmlns:cc="http://creativecommons.org/ns#" xmlns:rdf="http://www.w3.org/1999/02/22-rdf-syntax-ns#" xmlns:svg="http://www.w3.org/2000/svg" xmlns="http://www.w3.org/2000/svg" viewBox="0 0 32 32" version="1.1" x="0px" y="0px"><g transform="translate(-4,38)" style="" display="inline"><path style="color:#fff;font-style:normal;font-variant:normal;font-weight:normal;font-stretch:normal;font-size:medium;line-height:normal;font-family:sans-serif;font-variant-ligatures:normal;font-variant-position:normal;font-variant-caps:normal;font-variant-numeric:normal;font-variant-alternates:normal;font-variant-east-asian:normal;font-feature-settings:normal;font-variation-settings:normal;text-indent:0;text-align:start;text-decoration:none;text-decoration-line:none;text-decoration-style:solid;text-decoration-color:#fff;letter-spacing:normal;word-spacing:normal;text-transform:none;writing-mode:lr-tb;direction:ltr;text-orientation:mixed;dominant-baseline:auto;baseline-shift:baseline;text-anchor:start;white-space:normal;shape-padding:0;shape-margin:0;inline-size:0;clip-rule:nonzero;display:inline;overflow:visible;visibility:visible;opacity:1;isolation:auto;mix-blend-mode:normal;color-interpolation:sRGB;color-interpolation-filters:linearRGB;solid-color:#fff;solid-opacity:1;vector-effect:none;fill:#fff;fill-opacity:1;fill-rule:nonzero;stroke:none;stroke-linecap:butt;stroke-linejoin:miter;stroke-miterlimit:4;stroke-dasharray:none;stroke-dashoffset:0;stroke-opacity:1;color-rendering:auto;image-rendering:auto;shape-rendering:auto;text-rendering:auto;enable-background:accumulate;stop-color:#fff;stop-opacity:1" d="m 13,-36 a 1,1 0 0 0 -1,1 v 1 h -2 c -2.1987,0 -4,1.8013 -4,4 v 18 c 0,2.1987 1.8013,4 4,4 h 20 c 2.1987,0 4,-1.8013 4,-4 v -18 c 0,-2.1987 -1.8013,-4 -4,-4 h -2 v -1 a 1,1 0 0 0 -1,-1 1,1 0 0 0 -1,1 v 1 h -5 v -1 a 1,1 0 0 0 -1,-1 1,1 0 0 0 -1,1 v 1 h -5 v -1 a 1,1 0 0 0 -1,-1 z m -3,4 h 2 v 1 a 1,1 0 0 0 1,1 1,1 0 0 0 1,-1 v -1 h 5 v 1 a 1,1 0 0 0 1,1 1,1 0 0 0 1,-1 v -1 h 5 v 1 a 1,1 0 0 0 1,1 1,1 0 0 0 1,-1 v -1 h 2 c 1.1253,0 2,0.8747 2,2 v 2 H 8 v -2 c 0,-1.1253 0.8747,-2 2,-2 z m 10,9 a 1,1 0 0 1 1,1 v 3 h 3 a 1,1 0 0 1 1,1 1,1 0 0 1 -1,1 h -3 v 3 a 1,1 0 0 1 -1,1 1,1 0 0 1 -1,-1 v -3 h -3 a 1,1 0 0 1 -1,-1 1,1 0 0 1 1,-1 h 3 v -3 a 1,1 0 0 1 1,-1 z"></path></g></svg>